<?xml version="1.0" standalone="no"?>
<!DOCTYPE svg PUBLIC "-//W3C//DTD SVG 20010904//EN"
 "http://www.w3.org/TR/2001/REC-SVG-20010904/DTD/svg10.dtd">
<svg version="1.0" xmlns="http://www.w3.org/2000/svg"
 width="300.000000pt" height="300.000000pt" viewBox="0 0 300.000000 300.000000"
 preserveAspectRatio="xMidYMid meet">
<metadata>
Created by potrace 1.11, written by Peter Selinger 2001-2013
</metadata>
<g transform="translate(0.000000,300.000000) scale(0.100000,-0.100000)"
fill="#000000" stroke="none">
<path d="M1145 2866 c-5 -2 -29 -9 -52 -16 -24 -7 -43 -17 -43 -22 0 -4 -3 -7
-7 -6 -17 4 -53 -14 -47 -24 4 -6 2 -8 -3 -5 -25 15 -111 -75 -154 -160 -25
-50 -31 -71 -26 -104 12 -91 97 -209 191 -264 22 -13 87 -37 143 -53 57 -17
123 -42 148 -56 51 -31 131 -108 140 -137 4 -10 9 -19 13 -19 4 0 6 156 5 347
-2 192 -3 372 -3 400 0 52 -1 53 -42 74 -24 11 -56 25 -73 30 -32 10 -173 21
-190 15z"/>
<path d="M1705 2860 c-22 -6 -61 -20 -87 -32 -42 -19 -48 -25 -49 -52 -3 -144
0 -758 4 -763 3 -2 12 8 20 24 41 78 125 133 265 173 165 48 250 113 308 234
40 82 41 97 14 168 -32 86 -162 216 -220 221 -11 1 -20 4 -20 8 0 19 -176 33
-235 19z"/>
<path d="M650 2479 c-158 -100 -256 -268 -276 -470 l-6 -64 40 -23 c54 -30
157 -68 231 -85 74 -17 227 -21 296 -8 60 12 95 -5 95 -44 0 -34 -32 -52 -117
-62 -184 -23 -375 15 -552 110 l-55 29 -18 -24 c-33 -42 -98 -182 -100 -218
-2 -19 -7 -38 -12 -41 -15 -11 -9 -181 9 -254 16 -66 64 -167 108 -227 28 -38
64 -48 170 -45 72 2 101 7 133 24 83 44 127 125 106 198 -19 70 5 122 73 154
61 29 132 38 263 33 136 -4 199 11 260 64 151 129 130 407 -39 520 -26 17 -88
42 -145 58 -114 32 -213 80 -268 133 -50 48 -108 137 -125 194 -24 82 -21 79
-71 48z"/>
<path d="M2304 2483 c-21 -99 -92 -211 -167 -267 -74 -55 -131 -81 -238 -111
-114 -32 -167 -62 -211 -118 -50 -63 -70 -114 -75 -198 -8 -110 15 -178 83
-246 69 -69 120 -84 280 -81 177 3 254 -13 301 -64 33 -36 43 -70 32 -117 -24
-105 43 -196 166 -226 41 -10 153 -7 190 5 40 13 145 166 130 190 -3 6 -2 10
4 10 18 0 40 108 43 215 1 46 -10 125 -27 179 -18 58 -82 176 -95 176 -6 0
-10 7 -10 15 0 20 1 20 -87 -24 -178 -89 -344 -120 -524 -99 -85 10 -119 28
-119 62 0 44 26 54 115 42 161 -22 351 13 497 91 l47 26 -4 64 c-2 35 -6 67
-9 71 -2 4 -7 23 -10 43 -8 50 -58 159 -69 152 -6 -3 -7 -2 -4 4 14 23 -85
134 -174 194 l-59 39 -6 -27z m383 -1048 c0 -8 -4 -12 -9 -9 -5 3 -6 10 -3 15
9 13 12 11 12 -6z m0 -230 c0 -8 -4 -12 -9 -9 -5 3 -6 10 -3 15 9 13 12 11 12
-6z m48 -25 c-3 -5 -12 -10 -18 -10 -7 0 -6 4 3 10 19 12 23 12 15 0z"/>
<path d="M1425 1503 c-62 -97 -211 -165 -340 -157 -102 7 -206 3 -241 -9 l-39
-12 3 -58 c2 -32 -2 -81 -9 -110 -7 -29 -12 -56 -11 -60 1 -5 -2 -6 -8 -2 -5
3 -10 2 -10 -3 0 -12 -60 -76 -95 -99 -16 -12 -50 -27 -75 -34 -25 -7 -49 -15
-55 -19 -5 -4 -46 -6 -90 -5 l-80 2 1 -26 c3 -79 57 -237 77 -224 6 3 7 1 3
-6 -16 -25 126 -179 204 -222 16 -9 35 -21 42 -26 7 -5 32 -17 56 -27 l43 -16
34 31 c48 46 59 97 50 232 -14 210 -12 268 12 314 28 51 87 101 130 109 18 3
35 9 37 13 2 3 44 3 93 0 123 -8 217 -53 269 -129 l24 -35 0 40 c2 165 -1 559
-4 562 -2 2 -11 -9 -21 -24z"/>
<path d="M1557 1238 c1 -161 2 -297 2 -303 1 -5 10 4 20 21 23 38 73 78 124
99 20 8 38 15 39 14 2 0 17 5 33 11 17 7 62 12 100 12 77 0 164 -31 199 -70
10 -12 23 -19 29 -15 6 3 7 1 3 -6 -4 -6 -1 -23 8 -36 9 -13 16 -34 16 -45 0
-12 4 -19 9 -16 5 4 8 -2 6 -11 -2 -10 -6 -47 -9 -83 -3 -36 -8 -76 -11 -90
-10 -47 -8 -166 4 -217 9 -36 23 -60 47 -82 l34 -32 53 22 c109 46 234 155
293 254 33 58 70 167 76 226 l5 47 -66 -2 c-102 -4 -217 30 -263 76 -10 10
-22 18 -27 18 -4 0 -19 20 -32 44 -13 25 -26 43 -29 41 -8 -5 -11 25 -13 123
-2 60 -6 85 -17 92 -31 19 -197 29 -267 15 -35 -6 -167 22 -213 46 -42 23
-140 114 -140 131 0 4 -3 8 -7 8 -5 0 -7 -132 -6 -292z"/>
<path d="M1049 975 c-23 -10 -44 -30 -58 -56 -20 -35 -22 -49 -16 -102 4 -34
9 -71 11 -82 3 -11 5 -63 6 -115 1 -126 -19 -197 -74 -256 -38 -41 -40 -46
-28 -69 20 -38 94 -111 132 -131 66 -36 110 -48 206 -58 43 -4 149 13 190 30
l34 14 -6 72 c-4 40 -9 91 -11 113 -3 22 -7 65 -9 95 -6 75 -25 223 -36 290
-5 30 -12 71 -15 90 -13 78 -39 116 -100 145 -70 35 -171 43 -226 20z"/>
<path d="M1763 969 c-72 -28 -107 -65 -121 -130 -15 -68 -48 -301 -57 -399 -4
-41 -8 -86 -10 -100 -2 -14 -7 -62 -10 -107 -8 -93 -7 -93 81 -113 157 -36
324 7 420 108 39 42 78 102 65 102 -20 0 -73 68 -92 119 -23 62 -29 175 -14
281 14 108 11 167 -11 198 -47 63 -150 80 -251 41z"/>
</g>
</svg>
